<svg xmlns="http://www.w3.org/2000/svg" xmlns:xlink="http://www.w3.org/1999/xlink" xmlns:lucid="lucid" width="680" height="213.2"><g transform="translate(-380 -740)" lucid:page-tab-id="0_0"><path d="M0 0h1870.4v1323.2H0z" fill="#fff"/><path d="M400 760h640v173.2H400z" stroke="#000" stroke-width="2" fill="#fff"/><path d="M446.67 780H640l-26.67 100H420z" stroke="#000" stroke-width="2" fill="#fff"/><use xlink:href="#a" transform="matrix(1,0,0,1,425,785) translate(18.005000000000003 36.9)"/><use xlink:href="#b" transform="matrix(1,0,0,1,425,785) translate(36.005 36.9)"/><use xlink:href="#c" transform="matrix(1,0,0,1,425,785) translate(54.005 36.9)"/><use xlink:href="#d" transform="matrix(1,0,0,1,425,785) translate(72.005 36.9)"/><use xlink:href="#e" transform="matrix(1,0,0,1,425,785) translate(90.005 36.9)"/><use xlink:href="#f" transform="matrix(1,0,0,1,425,785) translate(108.005 36.9)"/><use xlink:href="#g" transform="matrix(1,0,0,1,425,785) translate(126.005 36.9)"/><use xlink:href="#h" transform="matrix(1,0,0,1,425,785) translate(144.005 36.9)"/><use xlink:href="#i" transform="matrix(1,0,0,1,425,785) translate(162.005 36.9)"/><use xlink:href="#j" transform="matrix(1,0,0,1,425,785) translate(180.005 36.9)"/><use xlink:href="#k" transform="matrix(1,0,0,1,425,785) translate(39.005 58.5)"/><use xlink:href="#l" transform="matrix(1,0,0,1,425,785) translate(57.005 58.5)"/><use xlink:href="#m" transform="matrix(1,0,0,1,425,785) translate(75.005 58.5)"/><use xlink:href="#n" transform="matrix(1,0,0,1,425,785) translate(93.005 58.5)"/><use xlink:href="#o" transform="matrix(1,0,0,1,425,785) translate(111.005 58.5)"/><use xlink:href="#p" transform="matrix(1,0,0,1,425,785) translate(129.005 58.5)"/><use xlink:href="#q" transform="matrix(1,0,0,1,425,785) translate(147.005 58.5)"/><path d="M628.7 830h251.8" stroke="#000" stroke-width="2" fill="none"/><path d="M628.73 831h-1.3l.54-2h.76z"/><path d="M895.76 830l-14.26 4.64v-9.28z" stroke="#000" stroke-width="2"/><path d="M630 780h240v60H630z" stroke="#000" stroke-opacity="0" stroke-width="2" fill="#fff" fill-opacity="0"/><g><use xlink:href="#r" transform="matrix(1,0,0,1,635,785) translate(97 30.025)"/><use xlink:href="#s" transform="matrix(1,0,0,1,635,785) translate(115 30.025)"/></g><path d="M640 840h220v40H640z" stroke="#000" stroke-opacity="0" stroke-width="2" fill="#fff" fill-opacity="0"/><g><use xlink:href="#t" transform="matrix(1,0,0,1,645,845) translate(5.025000000000006 18.15)"/><use xlink:href="#u" transform="matrix(1,0,0,1,645,845) translate(23.025000000000006 18.15)"/><use xlink:href="#v" transform="matrix(1,0,0,1,645,845) translate(41.025000000000006 18.15)"/><use xlink:href="#w" transform="matrix(1,0,0,1,645,845) translate(59.025000000000006 18.15)"/><use xlink:href="#x" transform="matrix(1,0,0,1,645,845) translate(77.025 18.15)"/><use xlink:href="#y" transform="matrix(1,0,0,1,645,845) translate(114.97500000000001 18.15)"/><use xlink:href="#z" transform="matrix(1,0,0,1,645,845) translate(132.97500000000002 18.15)"/><use xlink:href="#A" transform="matrix(1,0,0,1,645,845) translate(150.975 18.15)"/><use xlink:href="#B" transform="matrix(1,0,0,1,645,845) translate(168.975 18.15)"/><use xlink:href="#C" transform="matrix(1,0,0,1,645,845) translate(186.975 18.15)"/></g><path d="M1020 830c0 27.6-26.86 50-60 50s-60-22.4-60-50 26.86-50 60-50 60 22.4 60 50z" stroke="#000" stroke-width="2" fill="#fff"/><g><use xlink:href="#D" transform="matrix(1,0,0,1,905,785) translate(28 48.15)"/><use xlink:href="#E" transform="matrix(1,0,0,1,905,785) translate(46 48.15)"/><use xlink:href="#F" transform="matrix(1,0,0,1,905,785) translate(64 48.15)"/></g><path d="M570 880h360v53.2H570z" stroke="#000" stroke-opacity="0" stroke-width="2" fill="#fff" fill-opacity="0"/><g><use xlink:href="#G" transform="matrix(1,0,0,1,575,885) translate(4.449999999999989 25.4)"/><use xlink:href="#H" transform="matrix(1,0,0,1,575,885) translate(22.44999999999999 25.4)"/><use xlink:href="#I" transform="matrix(1,0,0,1,575,885) translate(40.44999999999999 25.4)"/><use xlink:href="#J" transform="matrix(1,0,0,1,575,885) translate(58.44999999999999 25.4)"/><use xlink:href="#K" transform="matrix(1,0,0,1,575,885) translate(76.44999999999999 25.4)"/><use xlink:href="#L" transform="matrix(1,0,0,1,575,885) translate(94.44999999999999 25.4)"/><use xlink:href="#M" transform="matrix(1,0,0,1,575,885) translate(112.44999999999999 25.4)"/><use xlink:href="#N" transform="matrix(1,0,0,1,575,885) translate(130.45 25.4)"/><use xlink:href="#O" transform="matrix(1,0,0,1,575,885) translate(148.45 25.4)"/><use xlink:href="#P" transform="matrix(1,0,0,1,575,885) translate(166.45 25.4)"/><use xlink:href="#Q" transform="matrix(1,0,0,1,575,885) translate(184.45 25.4)"/><use xlink:href="#z" transform="matrix(1,0,0,1,575,885) translate(202.45 25.4)"/><use xlink:href="#R" transform="matrix(1,0,0,1,575,885) translate(220.45 25.4)"/><use xlink:href="#S" transform="matrix(1,0,0,1,575,885) translate(238.45 25.4)"/><use xlink:href="#T" transform="matrix(1,0,0,1,575,885) translate(273.55 25.4)"/><use xlink:href="#U" transform="matrix(1,0,0,1,575,885) translate(291.55 25.4)"/><use xlink:href="#V" transform="matrix(1,0,0,1,575,885) translate(309.55 25.4)"/><use xlink:href="#W" transform="matrix(1,0,0,1,575,885) translate(327.55 25.4)"/></g><defs><path d="M106-244c-22 41-33 46-74 74l1 3c37-17 65-36 84-57 4-1 15-3 4-8-5-2-9-6-15-12zm192 64c10-1 16-19 5-28-8-6-27-18-60-32l-3 3c23 15 41 32 51 52 2 4 4 5 7 5zM246-64c-1-6 15-11 4-17-4-3-9-7-14-13l-11 11c-39-3-92 9-116-9 9-8 18-19 27-31h93c19 31 46 57 71 74 8-7 18-11 32-11l2-4c-35-11-66-34-90-59h77c8 1 10-9 2-11-8-5-15-11-20-17l-16 18h-51c-11-12-21-26-29-41h62c8 1 10-9 2-11-8-5-14-9-18-15l-15 16h-70c9-18 13-47 27-63-5-6-17-6-25-12-4 27-11 52-20 75H84l5 10h57c-5 14-14 29-22 41H30l6 10h82C91-87 61-63 17-37l1 3c38-16 63-34 86-54 6 27 1 59 3 90 4 47 6 42 61 42 43 0 101 11 124-13-8-6-15-22-12-43-13 7-7 40-28 40-23 0-58 1-84 1-33 0-44 5-44-27v-76h105c0 24 1 38-3 51-7 7-26-5-31 2 14 5 21 12 25 23 28-6 26-22 26-66zm-104-69c9-11 14-25 22-41h40c6 16 13 29 19 41h-81" id="X"/><use transform="matrix(0.05,0,0,0.05,0,0)" xlink:href="#X" id="a"/><path d="M106-225l44-16c-4-8-12-10-18-20-17 18-52 35-106 50l1 3c21-2 42-6 62-12v58H22l5 10h61C67-75 54-67 19 5c32-36 52-64 70-113V51c2 6 16 0 17-5v-172c19 9 18 34 37 44 5 0 8-7 8-15-5-16-25-24-45-34v-21c17-3 45 6 52-6-6-8-20-14-25-22-8 7-10 20-27 18v-63zm207 10c0-8 20-14 6-21-5-3-11-6-16-12l-11 15c-43-3-102 9-129-10 14 51-2 128 7 184 4-2 11-3 14-6v-23h113c1 5-3 15 3 16 4-2 11-3 13-7v-136zM184-97v-127h113v127H184zm28 37c-17 48-56 79-86 110 39-21 69-49 98-87 3-3 16-6 4-11-5-2-10-6-16-12zm45 7c35 37 45 70 66 99 14-3 9-25 1-37-7-12-29-34-66-65" id="Y"/><use transform="matrix(0.05,0,0,0.05,0,0)" xlink:href="#Y" id="b"/><path d="M88-204c-1-20 0-39 7-50l-26-8c4 14 1 40 2 58H22l5 9h88C83-119 67-98 18-48l1 2c22-17 39-33 52-48V51c2 7 14-2 17-5v-158c23 17 30 41 44 56 4 0 7-4 7-11 0-28-21-32-49-49 10-14 23-36 38-65 5-4 29-9 12-17-3-3-8-8-14-16-7 9-21 11-38 10zm154-2c1-17-3-39 5-48-3-7-19-4-24-8 3 9 2 39 2 56-27 0-57 3-72-9 8 55 1 123 3 184 9 7 21-3 17-19h52c2 33-4 75 2 104 5-3 13-3 15-8v-96h55c1 5-3 15 3 16 4-2 11-3 13-7v-141c-1-10 24-13 7-21-4-3-10-6-15-12-10 14-40 8-63 9zM173-60v-62h52v62h-52zm69-62h55v62h-55v-62zm-69-9v-65h52v65h-52zm69-65h55v65h-55v-65" id="Z"/><use transform="matrix(0.05,0,0,0.05,0,0)" xlink:href="#Z" id="c"/><path d="M43-145c25-26 36-62 57-98-5-5-15-6-22-12-9 43-26 88-56 108 5 8 7 16 8 23 22-11 41-10 70-23-16 30-42 73-74 85 5 9 9 17 10 24 34-19 60-20 108-45l-3-5c-35 14-66 23-93 28 42-34 63-81 96-131-4-6-16-6-23-13-4 17-10 33-18 49-22 4-42 8-60 10zM38 47c30-31 62-38 110-80l-2-2C96-6 70 9 22 20c5 5 8 21 16 27zm223-266c-50 67-76 82-147 123l3 3c83-38 99-46 159-110 5-5 31-10 13-19-4-3-9-9-16-18l-14 11H143l5 10h113zm-15 60l-3 4c30 16 53 33 67 55 6 9 21 12 21-3-14-28-42-35-85-56zm46 74l-16 18H144l6 10h67v85h-97l5 10h201c10 0 11-10 2-12-9-5-15-11-20-17l-17 19h-56v-85h75c7 0 11-8 2-11-8-5-15-11-20-17" id="aa"/><use transform="matrix(0.05,0,0,0.05,0,0)" xlink:href="#aa" id="d"/><path d="M312-214c-1-8 20-14 8-21-5-3-10-8-15-15l-14 10H52l-20-11c12 92-3 210 6 305 5-2 13-3 15-7v-277h92c-5 45-10 82-16 111-16-18-36-36-59-55l-1 3c22 21 41 44 57 68-11 43-31 83-64 114l1 3c34-23 58-59 73-101 12 19 21 39 30 60 2 7 14 9 14-1 0-29-22-56-39-77 7-29 15-70 22-125h83c-5 45-10 82-17 112-17-20-36-39-56-57l-3 2c20 24 40 46 55 73-14 54-36 96-79 132l1 3c43-28 72-67 88-120 18 23 23 51 42 64 4-1 6-4 6-9-3-25-29-55-43-74 8-30 15-72 23-126h31V15c-2 26-28 8-51 7v4c19 6 30 15 37 28 10-2 35-16 32-30v-238" id="ab"/><use transform="matrix(0.05,0,0,0.05,0,0)" xlink:href="#ab" id="e"/><path d="M47-145c26-26 33-64 56-98-5-5-15-6-22-12-10 42-24 88-55 108 5 8 7 16 8 23 20-11 36-10 63-23-14 31-38 73-67 85 5 9 9 17 10 24 32-19 57-20 101-45l-2-5c-33 14-62 23-87 28 39-34 59-82 88-131-4-6-16-6-23-13-4 17-9 34-16 50-20 4-38 7-54 9zM29 14c6 3 12 37 21 22 27-24 57-32 100-70l-3-3C98-10 76 3 29 14zm101-74c45-18 76-36 104-60 16 21 50 46 72 56 8-8 18-11 28-11v-4c-36-11-64-30-90-51 16-16 33-37 51-61 6-3 20-6 8-13-4-4-8-10-13-17-17 12-54 4-80 6 7-8 8-21 21-23 6-3 6-6-2-9-6-2-12-6-19-11-25 61-41 80-88 116l2 4c26-12 51-31 69-54 10 26 17 43 31 60-22 23-52 44-94 69v3zm66-136c4-5 3-5 7-10h76c-16 27-31 49-46 65-12-14-25-32-37-55zm98 241c12-27-8-84 12-97-2-10-14-10-20-19l-11 9c-37-2-86 7-109-9 9 34 2 81 4 121 5 6 21 0 17-14h93c1 5-2 13 3 13zM187 26v-78h93v78h-93" id="ac"/><use transform="matrix(0.05,0,0,0.05,0,0)" xlink:href="#ac" id="f"/><path d="M153-107C115-29 91-8 18 33l3 3C98-2 125-22 166-92c2 48-4 103 2 147 5-3 13-3 16-9v-151C211-37 244-2 291 31c9-8 22-13 37-13l2-4C267-7 217-52 187-107h122c11-12-17-17-22-29l-16 20h-87v-65h140c9-1 8-9-1-12-6-4-13-10-21-19l-19 21h-99c2-22-5-53 7-63-4-7-24-4-29-8 5 13 4 49 4 71H22l5 10h139v65H40l5 9h108" id="ad"/><use transform="matrix(0.05,0,0,0.05,0,0)" xlink:href="#ad" id="g"/><path d="M95-197c0-22-2-45 7-55-7-4-20-5-29-10 7 15 3 43 4 65H18l5 9h117c9 1 9-7 2-11-8-4-16-10-20-16-8 7-10 20-27 18zM59-23c21-12 10-36 4-69-5-22-14-49-27-79l-3 1c12 48 18 94 19 139 0 5 2 7 7 8zM37 33C65 14 96 5 139-27l-3-3c-20 9-38 17-53 23 14-30 29-81 45-151 5-3 12-8 0-10-6-1-13-3-21-7-6 61-16 117-31 170-17 8-42 15-59 16 5 3 13 40 20 22zm202-218c0-25-3-55 7-69l-26-8c6 20 2 52 3 77h-55c0-20-2-46 6-56-3-6-18-4-26-9 6 29 2 66 3 99 10 6 21-8 17-24h126c1 5-3 16 3 16 4-3 13-1 13-8 1-26-5-62 7-76-5-5-18-3-26-8 5 20 2 43 3 66h-55zm59 239c45-11 3-105 33-128-5-7-14-9-18-18l-12 9h-90c9-11 17-24 23-38h90c8 1 9-8 2-10-8-5-14-10-18-16l-16 17H129l6 9h80c-2 12-5 25-9 38-27 0-56 3-70-10 9 41 1 97 4 144 0 7 10-1 14-1 7-36 0-84 2-124h36V46c2 7 15-1 17-6V-74h37V46c2 5 15-1 16-6V-74h41v94c0 19-13 9-28 8v3c12 4 19 13 23 23" id="ae"/><use transform="matrix(0.05,0,0,0.05,0,0)" xlink:href="#ae" id="h"/><path d="M334-126c-68-19-120-59-154-111 2-6 24-8 8-14-6-2-12-6-19-11-44 85-72 111-151 159l1 5c69-26 120-77 159-136 31 62 70 94 122 123 8-8 18-11 32-11zm-105-18l-16 20H92l5 9h66v62H77l5 9h81v73H51l5 10h244c9 1 11-9 2-11-9-5-17-11-22-18l-18 19h-79v-73h85c8 0 10-8 1-10-8-5-14-11-19-17l-17 18h-50v-62h64c10 0 12-8 3-11-9-5-16-12-21-18" id="af"/><use transform="matrix(0.05,0,0,0.05,0,0)" xlink:href="#af" id="i"/><path d="M231-129c1-18-4-44 5-53-3-7-19-5-24-9 3 11 2 44 2 62h-57c10-22 20-46 30-72h125c10 0 10-8 2-12-9-4-17-11-22-17l-17 19h-85c6-14 9-33 20-43-4-4-15-4-22-9-5 19-10 36-16 52h-60l6 10h50c-11 32-24 56-36 82-1 3 9 9 14 8 5 1 5-7 9-8h59v57H112l6 10h96c2 22-4 52 2 70 5-3 13-2 15-8v-62h89c11 0 10-7 2-11-9-4-16-12-21-18l-18 19h-52v-57h77c8-2 6-9-2-12-6-3-12-9-20-17l-20 19h-35zM85-181c14-4 13-24-2-33-10-7-25-15-46-25 15 21 29 24 39 50 2 5 5 8 9 8zm10 74c0-12 29-12 10-22-4-3-7-6-11-12-13 16-48 9-75 10l6 9h52V5C58 19 38 29 15 35c9 5 12 26 18 14C53 36 70 22 85 9c35 47 140 28 221 32 8-11 17-18 25-21v-5C288 23 124 40 95 5v-112" id="ag"/><use transform="matrix(0.05,0,0,0.05,0,0)" xlink:href="#ag" id="j"/><path d="M57 54c10 8 28-11 28-28V-89c15-5 32-12 52-20l-2-3c-19 4-35 7-50 10v-75h50c7 1 8-8 2-10-8-3-13-9-17-14-8 8-15 18-35 15 2-23-5-57 7-66-4-6-18-4-26-9 5 18 2 51 3 75H18l5 9h46v78l-55 6c5 6 10 21 16 28 3-10 23-13 39-18V26c-4 11-30 5-40 2v4c15 4 24 11 28 22zm170-269c-1-18 1-31 6-40-4-5-18-4-26-8 4 11 3 32 3 48h-85l5 9h193c10 0 10-7 2-11-9-4-15-11-20-17l-17 19h-61zm26 79c15-11 29-37 45-56-5-4-15-5-22-11-7 28-17 48-32 67h-49c10-28-20-44-41-56 18 20 17 31 29 56h-73l5 10h80l-23 44h-72l6 10h60L129-2c17 9 27-13 32-25 21 6 41 13 57 20-29 32-71 45-121 57l2 4c55-5 102-23 133-53 33 15 58 41 80 52 13-7 5-26-8-32-11-8-37-20-61-31 13-15 24-35 33-62h55c11 0 10-8 2-12-10-5-18-12-23-19l-18 21H189l22-44h117c9 1 11-8 3-11-9-5-16-12-21-18l-16 19h-41zM227-16c-18-6-39-11-64-16l21-40h72c-8 23-17 42-29 56" id="ah"/><use transform="matrix(0.05,0,0,0.05,0,0)" xlink:href="#ah" id="k"/><path d="M305-218c-1-8 23-13 6-21-5-3-9-6-14-12l-11 14H81l-25-13c8 19 6 38 6 62-1 95-5 174-43 234l2 3C67-4 77-78 79-174h209c1 6-3 17 3 18 4-2 12-3 14-7v-55zm-225-9h208v43H80v-43zm188 76l-17 20H99l5 9h182c10 1 10-9 2-11-9-5-15-11-20-18zm-74 95c-2-4-15-5-19-9h142c11 0 11-9 2-12-10-6-17-12-22-19l-18 21H82l6 10h77c-7 21-33 82-74 87 11 14 10 15 16 24 50-17 121-19 173-39 7 7 9 31 22 34 16-7 8-27-6-41-11-9-33-29-57-38 20 17 28 26 38 40-41 9-95 16-162 20 24-17 48-40 70-72 2-3 9-2 9-6" id="ai"/><use transform="matrix(0.05,0,0,0.05,0,0)" xlink:href="#ai" id="l"/><path d="M97-98c2-26-6-64 6-80-3-7-20-4-25-8 5 19 2 62 3 88H38c10-31 21-65 30-103h68c8 1 10-9 2-11-8-5-14-9-18-15l-16 16H70c4-16 4-37 16-44-3-5-13-4-20-8l-12 52H18l5 10h28c-11 44-23 79-36 112 3 9 18 10 22 0h44v56c-22 8-49 15-70 18 5 6 9 21 16 28C35-1 61-8 81-19l1 78c5-3 14-2 15-8v-79c13-8 28-16 44-26l-2-3c-15 7-29 12-42 17v-49h39c12-11-14-15-19-26-7 5-10 15-20 17zm138-144c5-2 19-8 5-11-5-2-10-5-17-10-28 68-46 91-99 132l1 2c47-21 82-63 107-108 8 29 50 77 69 86 11-8 22-12 34-12v-3c-51-16-71-32-100-76zm18 62l-15 15h-57l6 10h81c8 1 9-8 2-10-8-4-13-10-17-15zm-29 76c0-7 19-14 7-19-5-3-9-8-14-14-11 16-56 13-70 0 10 55 1 126 4 187 2 7 15-1 17-4v-62h39c-2 15 4 39-4 47-6 0-14-1-23-2v3c11 4 18 10 22 19 9-1 22-14 22-25v-130zm-56 78v-44h39v44h-39zm0-53v-39h39v39h-39zm96 85c6-36-8-90 7-117-4-5-20-4-25-7 8 32 2 88 4 128zm42-125c0-7 15-14 1-14-6 0-13-2-20-5 7 46 1 110 3 162-2 9-32 4-33 4v4c14 3 20 11 25 21 9-2 24-13 24-29v-143" id="aj"/><use transform="matrix(0.05,0,0,0.05,0,0)" xlink:href="#aj" id="m"/><path d="M76-134c2-25-5-61 5-77-3-7-20-4-25-8 7 26 0 80 4 111 7-3 19-3 16-16h90V17H59c2-29-6-69 6-87-5-5-20-4-25-8 7 33 0 94 4 132 13-1 17-11 15-28h228c1 9-1 20 1 27 5-3 14-3 15-9 4-37-7-88 6-114-4-6-20-4-25-8 5 21 2 66 3 95H183v-141h89c0 5-1 12 1 15 5-3 14-3 15-9 3-30-6-73 6-93-3-7-20-4-25-8 5 18 2 60 3 85h-89c2-38-6-89 6-113l-26-8c7 34 1 82 3 121H76" id="ak"/><use transform="matrix(0.05,0,0,0.05,0,0)" xlink:href="#ak" id="n"/><path d="M77-191c19-20 23-42 41-56-7-6-18-7-26-15-2 25-9 49-19 71-19 2-32-3-43-9 10 71 1 160 4 238 3 5 15-2 17-5V7h75c-4 16 6 30 17 15v-131c18-17 37-45 51-72h112c-3 76-5 133-11 170-4 24-5 39-23 39s-32-1-40-4v4c20 4 31 14 40 26 32-7 35-29 40-68 5-37 6-88 9-154 1-7 22-13 8-19-5-3-9-7-13-14l-13 10H199c9-17 13-44 29-56-6-5-18-8-26-14-8 58-30 103-59 145 1-25-6-60 11-66-3-9-15-10-21-19-8 14-35 9-56 10zM51-2v-90h75v90H51zm0-99v-80h75v80H51zm181 45c15-4 12-25 0-36-8-6-22-24-38-29 16 23 20 27 29 57 2 5 5 8 9 8" id="al"/><use transform="matrix(0.05,0,0,0.05,0,0)" xlink:href="#al" id="o"/><path d="M102-174c2-24-5-59 5-74-3-7-20-4-25-8 5 17 3 57 3 82H54c6-12 2-33 16-38-4-5-16-7-23-13-4 50-13 87-28 127l2 1c11-16 23-43 30-68h34v84c-17 9-42 17-60 19 5 6 8 21 16 27 6-13 28-21 44-31l1 120c5-3 14-3 16-8V-76c13-8 26-19 42-31-14-2-29 15-42 18v-76h38c8 1 7-7 2-10-8-3-13-9-18-16-8 5-8 18-22 17zm126-29c-1-19 1-34 7-44l-26-8c5 12 3 35 3 52h-71l6 10h65v57h-83l6 10h186c11 1 11-7 3-11-9-4-16-12-21-18l-16 19h-59v-57h72c7 0 9-10 1-11-8-5-14-11-19-17l-17 18h-37zm15 258c10 0 26-15 26-27v-93h52c11 1 12-10 3-12-9-5-16-11-21-17-8 9-12 23-34 19-1-17 1-33 7-39-5-5-17-4-26-8 4 12 3 31 3 47H129l6 10h118v87c-4 17-26 6-46 4l-1 5c20 4 28 14 37 24zM150-45c26 18 33 36 48 51 12-1 11-23 2-31-9-7-23-15-47-24" id="am"/><use transform="matrix(0.05,0,0,0.05,0,0)" xlink:href="#am" id="p"/><path d="M91-258c-16 41-41 70-72 95 40-12 63-51 93-78-4-7-14-8-21-17zm-9 138c15-14 26-40 46-54-5-7-17-9-24-18-19 56-57 91-89 128 17-10 34-23 50-38l2 159c5-3 13-4 15-8v-169zm79-1c-2-10 16-15 0-19-7-1-14-4-22-7 10 48 1 116 4 171H95l5 9h223c10 0 10-7 2-11-9-4-15-11-20-17l-17 19h-59V-97h76c7 0 7-9 1-11-9-4-16-10-22-18l-18 19h-37v-105h88c11 0 12-8 3-12s-15-11-20-17l-17 19H122l6 10h84V24h-51v-145" id="an"/><use transform="matrix(0.05,0,0,0.05,0,0)" xlink:href="#an" id="q"/><path d="M120-188c0-8 18-12 3-19-4-3-9-6-14-12-14 15-61 12-79 0 10 67 1 151 4 225 2 7 15-1 17-4v-20h52c1 6-2 16 3 17 4-2 12-3 14-7v-180zM51-27v-84h52v84H51zm0-94v-79h52v79H51zm180-74c0-20-2-47 5-56l-29-8c3 3 5 24 5 64-27 1-50 0-65-11 7 37 1 85 3 127h-26l5 9h76c-19 66-39 88-96 121l1 3c59-19 97-59 114-124h3c12 56 39 91 76 119 9-8 20-13 31-13v-4c-52-20-77-46-102-102h95c8 1 9-8 2-10-8-5-15-10-19-16-6 5-9 13-16 17v-92c-1-12 18-13 4-22-5-3-10-8-14-14l-12 12h-41zM168-79v-106h45c1 36-1 80-6 106h-39zm63-106h45v106h-51c5-24 7-70 6-106" id="ao"/><use transform="matrix(0.05,0,0,0.05,0,0)" xlink:href="#ao" id="r"/><path d="M154-188c0-7 19-14 7-19-5-3-9-8-14-14-9 15-39 9-62 10 15-9 19-21 33-28 6-3 5-7-2-9-6-1-11-5-17-10-2 16-8 32-19 47-14 1-19-7-29-10l1 160c-11 1-22 2-31 2 5 6 9 21 16 28 22-21 59-16 100-35v5C109-22 55 14 19 28l2 4c41-8 86-36 116-69-3 20 7 57-7 65-8 0-18-1-31-2v5c16 5 26 12 33 23 8-3 22-16 22-30v-80c9-9 15-25 30-27-2-8-12-9-18-18l-12 18v-105zm-85-13h68v36H69v-36zm0 46h68v40H69v-40zm0 50h68v34c-27 4-49 6-68 8v-42zM255 51c10 10 31-14 31-30v-177c15-2 40 6 45-6-6-8-20-14-25-22-7 6-9 16-20 18 2-27-7-68 8-79-5-7-20-4-29-9 5 22 2 60 3 88H168l5 10h95V21c-2 12-32 5-43 5v5c16 4 26 10 30 20zm-37-86c15-4 11-26 2-40-6-8-17-27-31-33 13 26 13 31 20 64 2 5 5 9 9 9" id="ap"/><use transform="matrix(0.05,0,0,0.05,0,0)" xlink:href="#ap" id="s"/><path fill="#c92d39" d="M81-156c1-5 9-14-2-14 11-18 23-39 35-64 4-5 19-7 5-13-6-3-13-8-20-15-17 65-45 113-81 158l3 3c15-13 29-28 44-47l2 202c5-2 14-2 14-8v-202zm232 15c1-9 24-13 7-21-4-3-10-6-15-12-12 16-51 7-77 9v-36h95c10 0 10-8 2-12-9-4-15-11-20-17l-17 19h-60c-1-15 0-29 5-37l-26-8c1 3 3 17 4 45H109l5 10h97v36c-31-1-69 5-87-9 10 30-2 78 6 111 7-3 17-3 14-15h65c-3 34-13 50-27 70-18-10-36-25-54-45l-3 3c15 22 32 38 49 51-22 24-42 31-85 50l2 3c37-9 68-24 94-45 32 20 72 29 118 37 8-8 19-14 31-18v-4c-51 0-103-9-139-26 17-21 27-39 31-76h71c-2 12 6 10 13 6 8-16 1-47 3-69zM144-88v-67h67c0 20 2 48-1 67h-66zm84-67h69v67h-70c1-20 1-45 1-67" id="aq"/><use transform="matrix(0.05,0,0,0.05,0,0)" xlink:href="#aq" id="t"/><path fill="#c92d39" d="M117-204c-2-19 1-33 7-43-6-4-20-4-29-9 6 12 3 34 4 52H30l6 9h63v147H22l5 10h294c11 0 12-9 2-11-9-5-16-12-21-18l-18 19h-31v-147h63c10 1 10-8 3-11-9-4-16-11-21-18l-16 20h-29c-1-18 1-31 6-41-6-5-19-5-28-10 6 10 3 34 4 51H117zm0 156v-44h118v44H117zm0-53v-44h118v44H117zm0-54v-40h118v40H117zm3 128C96 17 82 21 37 51l3 3c40-17 71-36 92-58 4-1 19-5 5-10-5-2-11-7-17-13zm97 6l-1 2c28 22 46 40 56 56 7 10 11 16 15 16 14-2 12-21 1-30-7-8-31-23-71-44" id="ar"/><use transform="matrix(0.05,0,0,0.05,0,0)" xlink:href="#ar" id="u"/><path fill="#c92d39" d="M102-174c2-24-5-59 5-74-3-7-20-4-25-8 5 17 3 57 3 82H54c6-12 2-33 16-38-4-5-16-7-23-13-4 50-13 87-28 127l2 1c11-16 23-43 30-68h34v84c-17 9-42 17-60 19 5 6 8 21 16 27 6-13 28-21 44-31l1 120c5-3 14-3 16-8V-76c13-8 26-19 42-31-14-2-29 15-42 18v-76h38c8 1 7-7 2-10-8-3-13-9-18-16-8 5-8 18-22 17zm126-29c-1-19 1-34 7-44l-26-8c5 12 3 35 3 52h-71l6 10h65v57h-83l6 10h186c11 1 11-7 3-11-9-4-16-12-21-18l-16 19h-59v-57h72c7 0 9-10 1-11-8-5-14-11-19-17l-17 18h-37zm15 258c10 0 26-15 26-27v-93h52c11 1 12-10 3-12-9-5-16-11-21-17-8 9-12 23-34 19-1-17 1-33 7-39-5-5-17-4-26-8 4 12 3 31 3 47H129l6 10h118v87c-4 17-26 6-46 4l-1 5c20 4 28 14 37 24zM150-45c26 18 33 36 48 51 12-1 11-23 2-31-9-7-23-15-47-24" id="as"/><use transform="matrix(0.05,0,0,0.05,0,0)" xlink:href="#as" id="v"/><path fill="#c92d39" d="M91-258c-16 41-41 70-72 95 40-12 63-51 93-78-4-7-14-8-21-17zm-9 138c15-14 26-40 46-54-5-7-17-9-24-18-19 56-57 91-89 128 17-10 34-23 50-38l2 159c5-3 13-4 15-8v-169zm79-1c-2-10 16-15 0-19-7-1-14-4-22-7 10 48 1 116 4 171H95l5 9h223c10 0 10-7 2-11-9-4-15-11-20-17l-17 19h-59V-97h76c7 0 7-9 1-11-9-4-16-10-22-18l-18 19h-37v-105h88c11 0 12-8 3-12s-15-11-20-17l-17 19H122l6 10h84V24h-51v-145" id="at"/><use transform="matrix(0.05,0,0,0.05,0,0)" xlink:href="#at" id="w"/><path fill="#c92d39" d="M77-191c19-20 23-42 41-56-7-6-18-7-26-15-2 25-9 49-19 71-19 2-32-3-43-9 10 71 1 160 4 238 3 5 15-2 17-5V7h75c-4 16 6 30 17 15v-131c18-17 37-45 51-72h112c-3 76-5 133-11 170-4 24-5 39-23 39s-32-1-40-4v4c20 4 31 14 40 26 32-7 35-29 40-68 5-37 6-88 9-154 1-7 22-13 8-19-5-3-9-7-13-14l-13 10H199c9-17 13-44 29-56-6-5-18-8-26-14-8 58-30 103-59 145 1-25-6-60 11-66-3-9-15-10-21-19-8 14-35 9-56 10zM51-2v-90h75v90H51zm0-99v-80h75v80H51zm181 45c15-4 12-25 0-36-8-6-22-24-38-29 16 23 20 27 29 57 2 5 5 8 9 8" id="au"/><path fill="#c92d39" d="M111-226l-36 4v207c33-1 73 2 101-4l11-49h11l-3 68H10v-9l31-5v-208l-31-4v-10h101v10" id="av"/><path fill="#c92d39" d="M24-231c66-21 156 2 128 81C132-92 78-66 39-27h121V0H16v-26l59-54c26-25 47-47 47-97 0-48-47-57-81-37l-6 29H24v-46" id="aw"/><g id="x"><use transform="matrix(0.05,0,0,0.05,0,0)" xlink:href="#au"/><use transform="matrix(0.05,0,0,0.05,18,0)" xlink:href="#av"/><use transform="matrix(0.05,0,0,0.05,28.950000000000003,0)" xlink:href="#aw"/></g><path fill="#c92d39" d="M140-217c-6-16 13-32 0-35-8-2-14-2-19-4 2 7 3 23 3 39H21l5 10h98c1 11-2 24 1 33 5-3 14-2 15-8v-25h72c1 11-2 24 1 33 5-3 13-2 15-8v-25h93c11 1 12-9 3-11-9-5-16-11-21-18l-16 19h-59c-5-16 11-31 0-35-8-1-14-2-19-4 2 7 3 23 3 39h-72zm-78 49c23 12 30 24 44 34 7 1 13-16 2-19-4-4-19-9-45-18zm-37 54c23 12 29 23 44 32 7 1 15-17 3-19-3-1-27-14-47-13zM80 54c25-15-15-52 9-74 12-28 31-57 40-84L72-21c-7 11-18 9-32 10v3c39-2 9 57 40 62zM224-54c14 4 21 13 27 24 41-7 25-53 33-101 1-7 22-12 8-19-5-3-9-8-13-15l-13 10c-37-2-83 6-104-11 9 50 0 109 4 164 3 46 5 42 56 42 39 0 94 11 112-14-15-6-15-38-14-64h-3c-8 30-3 71-49 63-38-7-85 18-85-27v-143h86c-3 44 0 70-13 91-10 3-28 0-32-3v3" id="ax"/><use transform="matrix(0.05,0,0,0.05,0,0)" xlink:href="#ax" id="y"/><path fill="#c92d39" d="M48-245c15 16 22 30 30 44 8 0 11-16 4-22-3-5-13-13-32-25zm85 45c21-2 32-27 50-37-4-6-14-7-20-14-7 22-17 36-30 51zm28 76c23-21-14-36-39-44v-13h69c9 1 9-8 2-10-7-4-13-10-17-15l-15 15h-39c1-20-4-48 6-59-5-5-20-4-25-8 4 12 3 47 3 67H29l5 10h63c-18 38-42 60-74 80l2 4c36-16 60-36 81-66v54l-4-2c-2 10-7 22-14 36H21l5 10h57C75-49 64-30 50-8c11 11 21-5 24-14 16 5 30 10 41 17-22 30-50 45-96 56v3c51-7 83-23 108-51 20 12 22 21 36 28 4-1 7-4 7-10-6-15-18-19-35-29 9-13 18-27 31-57 13-1 52 3 35-11-7-6-16-11-20-17l-16 18h-59c4-9 11-19 19-23-1-5-12-5-17-9 23-1 12-36 14-58 16 11 20 16 31 34 2 4 4 7 8 7zm-14 59c-10 25-18 42-25 51-11-5-27-9-45-13l23-38h47zm109 33c22-41 35-79 43-143 11 0 38 2 24-11-8-3-15-8-20-15l-16 16h-57c6-13 11-29 17-47 3-4 20-8 5-14-7-2-13-6-21-12-11 65-27 112-58 155l3 3c14-15 25-31 35-49 3 44 13 84 28 119-24 37-52 60-99 81l1 3c47-15 82-35 105-70 10 17 27 38 49 62 13-6 20-11 32-3l1-4c-35-21-54-41-72-71zm-7-14c-12-28-28-69-32-114 3-5 6-9 9-15h55c-6 58-16 92-32 129" id="ay"/><use transform="matrix(0.05,0,0,0.05,0,0)" xlink:href="#ay" id="z"/><path fill="#c92d39" d="M59-94c4 14 21 9 18-7-5-28-29-50-56-66 22 29 26 35 38 73zm53-29c1-38-7-92 6-117-6-4-20-5-29-10 10 42 5 80 6 127C96-34 72 17 22 51l3 3c68-33 84-81 87-177zm191-69c1-8 17-14 4-21-6-4-11-10-17-16l-14 15H135l5 10h144v97H136l5 10h143v96H133l6 10h145c2 11-5 30 4 34 5-3 15-1 15-8v-227" id="az"/><use transform="matrix(0.05,0,0,0.05,0,0)" xlink:href="#az" id="A"/><path fill="#c92d39" d="M297-138l-22 24H23l6 10h292c10-2 6-9-2-13-7-3-14-11-22-21" id="aA"/><use transform="matrix(0.05,0,0,0.05,0,0)" xlink:href="#aA" id="B"/><path fill="#c92d39" d="M97-159c1-7 9-10 0-14 12-19 23-40 33-64 4-5 24-10 7-15-6-2-12-6-20-11C88-178 70-149 15-96l2 4c23-13 45-32 64-57V47c1 9 10 0 14 0 7-63-1-139 2-206zm91-71c-2-8 16-13 1-16-6-1-12-3-19-6 5 83-2 173 2 259 2 36 19 31 73 31 53 0 68 4 86-16-11-7-11-26-12-49h-3c-3 19-4 42-16 47-18-1-120 14-112-13v-116c50-11 89-28 118-51 5-7 27-5 11-15-5-2-10-7-16-13-21 30-59 55-113 75v-117" id="aB"/><use transform="matrix(0.05,0,0,0.05,0,0)" xlink:href="#aB" id="C"/><path d="M331 14c-70 9-179 15-224-10v-74h54c7 0 7-7 1-10-8-3-14-9-19-16-9 9-15 21-36 17v-47h55c9 1 9-9 1-11-8-5-14-10-19-16l-16 17h-21v-48h48c9 1 10-8 2-10-8-5-14-10-18-16-8 8-12 21-32 17 0-18-1-39 5-50-4-5-19-3-26-8 7 14 5 37 5 58H43l5 9h43v48H32l5 10h54V-8c-8-8-15-20-23-37 5-17 0-44 13-52l-28-8c9 58-8 115-35 145l1 3C45 21 57-2 66-35c17 44 36 57 90 68 25 5 74 8 146 8 6-12 15-20 29-23v-4zm-92-156c15 4 24 13 32 23 39-27 26-30 39-95 3-4 24-9 9-16-5-3-10-7-14-14l-14 11H161l5 9h54c-6 59-29 94-72 115l2 2c54-19 82-52 90-117h54c-11 72 3 87-55 77v5zm64 63c-1-9 24-13 7-21-5-3-10-6-15-12l-11 11c-38-2-87 7-110-10 12 31-1 82 7 117 8-2 17-5 14-18h92c1 4-3 13 3 12 4-2 12-2 13-6v-73zM195-21v-71h92v71h-92" id="aC"/><use transform="matrix(0.05,0,0,0.05,0,0)" xlink:href="#aC" id="D"/><path d="M12-24c6 2 14 37 21 20 29-18 62-25 107-53l-3-3c-21 8-40 15-56 20v-81h51c9 1 9-8 2-10-7-4-13-9-17-14-8 9-16 18-36 15v-74h54c7 0 9-9 1-11-8-5-14-11-19-17l-17 18H15l6 10h44v74H17l5 9h43v86zm97 9c6 6 18 33 23 14 22-18 47-39 74-65v88c-4 13-33 6-44 3v4c18 4 27 14 33 26 13 0 28-16 28-33v-137c17 58 48 97 87 124 6-11 23-8 31-14-45-15-71-39-93-74 27-13 51-31 76-47-3-7-12-7-18-16-19 25-39 45-61 60-13-24-26-56-22-99h100c10 1 10-9 2-11-9-5-15-11-20-18l-17 19h-65c1-20-4-50 6-57-5-6-18-2-26-8 5 15 3 45 3 65h-88l6 10h82v109c-32 22-64 41-97 57zm68-68c30-22-10-53-38-58 19 17 31 33 31 49 0 5 2 8 7 9zm66-153c18 13 23 26 33 37 8 0 10-17 2-22-5-5-17-11-34-18" id="aD"/><use transform="matrix(0.05,0,0,0.05,0,0)" xlink:href="#aD" id="E"/><path d="M306-151c1-7 21-11 5-19-4-3-9-6-14-12l-13 11H142c22-16 39-35 53-56h126c11 0 11-9 2-12-9-5-16-11-21-17l-18 19H19l6 10h149c-8 19-21 37-38 56-34-2-78 6-98-10 15 67-3 163 7 235 14-1 16-13 14-29h231c1 7-2 19 2 22 4-2 12-3 14-7v-191zM59 15v-177h66V15H59zm82 0v-54h69v54h-69zm86 0v-177h63V15h-63zm-86-64v-52h69v52h-69zm0-62v-51h69v51h-69" id="aE"/><use transform="matrix(0.05,0,0,0.05,0,0)" xlink:href="#aE" id="F"/><path fill="#c92d39" d="M280-158c1-7 19-13 9-21-5-3-11-7-16-14l-14 11h-75v-43h136c11 1 10-9 2-11-9-5-16-11-21-18l-18 20H23l6 9h137v43c-36-2-82 7-101-11 9 40 2 94 4 141H18l5 10h46c2 31-3 69 2 96 5-2 13-3 15-7v-89h176c-4 30 16 83-33 66v4c14 5 22 14 27 25 9-2 24-16 24-31v-64h47c8 0 10-9 1-11-8-5-14-11-19-17-9 7-11 21-29 18v-106zM86-52v-56h80v56H86zm98 0v-56h78v56h-78zm-98-66v-55h80v55H86zm98-55h78v55h-78v-55" id="aF"/><use transform="matrix(0.05,0,0,0.05,0,0)" xlink:href="#aF" id="G"/><path fill="#c92d39" d="M103-170c15-4 10-27-2-40-9-8-27-26-46-34 23 26 27 31 39 66 2 5 5 8 9 8zm14 41c0-7 15-11 4-16-4-2-7-5-11-10-15 16-56 5-83 8l6 10h69V5c0 7-5 12-14 16 7 7 11 13 15 20 22-16 43-36 63-61l-1-3C149-9 133 1 117 9v-138zm125-18c2-33-7-80 7-100-5-5-18-3-26-8 5 33 1 72 2 108h-82l5 10h77V53c5 2 15-1 17-7v-183h81c10 1 10-9 2-11-9-5-15-11-20-18l-17 19h-46" id="aG"/><use transform="matrix(0.05,0,0,0.05,0,0)" xlink:href="#aG" id="H"/><path fill="#c92d39" d="M93-221c7-6 6-15 16-18 9-10-16-11-21-19-13 42-35 72-69 95l3 3c27-17 45-28 63-51h23c11 9 11 35 24 38 22-10-4-31-16-38h63c7 0 6-9 1-11-8-3-14-8-19-15l-17 16H93zm131-3c0-10 27-17 12-23-6-2-12-6-19-11-9 36-27 60-52 81l3 3c21-13 34-24 49-40h22c11 9 11 33 23 36 22-10-1-29-14-36h78c8 0 5-8 1-11-8-3-14-8-19-15l-17 16h-67zm51 82c-1-8 23-13 6-21-5-3-10-6-15-12l-10 8H99l-19-10c11 39-2 100 6 142 7-3 17-3 14-15h36c-1 13-3 23-5 32H22l5 10h101c-13 35-45 49-88 58l1 4c57-4 90-20 106-62h67c2 20-4 48 3 62 5-2 14-2 14-8V-8h90c12 0 11-7 2-11s-16-12-21-18l-18 19h-53v-32h27c-4 16 11 11 17 5v-97zM214-18h-65c2-9 3-19 4-32h61v32zM100-60v-26h158v26H100zm0-36v-27h158v27H100zm0-37v-25h158v25H100" id="aH"/><use transform="matrix(0.05,0,0,0.05,0,0)" xlink:href="#aH" id="I"/><path fill="#c92d39" d="M280-236l-21 24H44l6 9h252c13 1 13-9 3-12-11-6-19-13-25-21zm-18 105l-20 23H60l6 10h218c12 0 14-10 3-13-11-6-19-12-25-20zm39 119l-22 25H18l5 9h301c12 1 13-9 3-12-11-7-20-14-26-22" id="aI"/><use transform="matrix(0.05,0,0,0.05,0,0)" xlink:href="#aI" id="J"/><path fill="#c92d39" d="M268-251l-18 19H71l6 10h210c11 1 10-9 2-11-9-5-16-11-21-18zm49 216c-5 42 7 69-45 63-38-4-51 5-51-25v-137h102c10 0 10-9 1-12-10-6-17-12-22-19l-18 21H23l6 10h91C123-20 90 15 18 50l1 3c81-27 122-74 118-187h66V3c-5 44 29 42 69 41 47-2 49 3 62-19-14-8-11-38-14-60h-3" id="aJ"/><use transform="matrix(0.05,0,0,0.05,0,0)" xlink:href="#aJ" id="K"/><path fill="#c92d39" d="M45-147c25-24 33-64 54-96-4-5-16-7-23-13-7 41-24 86-50 108 5 8 7 15 8 21 22-11 39-10 68-23-17 32-46 76-81 88 5 9 8 17 9 24 37-19 63-22 114-48l-3-4c-37 15-69 25-98 30 46-34 69-80 104-131-4-6-16-6-23-13-5 17-11 33-19 48-22 4-42 7-60 9zM36 44c30-30 65-37 114-78l-3-3C95-9 69 7 19 17c6 5 8 22 17 27zm254-254c0-12 19-13 4-22-5-3-10-7-14-13l-12 12h-89l-24-14c10 85 1 188 4 280h-50l5 10h213c9 0 9-8 1-11-8-5-14-11-19-17-7 6-10 14-19 18v-243zM177 33v-83h95v83h-95zm0-93v-76h95v76h-95zm0-85v-79h95v79h-95" id="aK"/><use transform="matrix(0.05,0,0,0.05,0,0)" xlink:href="#aK" id="L"/><path fill="#c92d39" d="M65 51c10 8 27-11 27-27V-89c13-8 28-19 45-32-14-1-32 16-45 19v-69h43c6 1 9-9 2-10-8-4-13-10-17-15-8 6-11 17-28 15 2-23-5-58 7-67-5-6-18-2-26-8 5 18 2 51 3 75H21l5 10h50v76c-17 8-40 15-57 17 6 6 8 21 17 26 5-10 24-19 40-27V24c-5 10-29 3-39 2v5c15 4 24 10 28 20zm219-214c31-4 1-60 24-64-3-9-15-10-21-20l-11 10c-40-3-94 8-118-10 10 23-2 64 7 87 5-3 16-2 14-13h103c1 3-2 10 2 10zm-105-19v-45h103v45H179zm123 66c0-8 21-14 5-21-5-3-10-6-15-12l-10 9c-44-3-103 9-132-9 11 39-2 99 6 141 4-2 12-2 14-7v-115h116c2 38-4 83 2 117 4-2 12-3 14-7v-96zm-67 67c0-18-1-39 5-47-7-3-19-4-28-9 5 23 5 36 5 56-2 68-56 84-113 100l3 3c77-18 128-26 128-103zm5 37l-1 3c34 17 55 32 67 47 7 9 13 13 17 13 13-4 6-22-5-30-13-9-39-21-78-33" id="aL"/><use transform="matrix(0.05,0,0,0.05,0,0)" xlink:href="#aL" id="M"/><path fill="#c92d39" d="M99-181c9-9 10-29 22-37 6-2 5-6-2-8-6-2-13-6-20-11-12 51-30 87-62 119l3 3c23-17 36-36 52-56h80c-1 31-5 57-10 77H29l5 9h126C130-9 98 14 19 50l2 3C97 30 154-7 178-84c23 64 64 103 119 130 9-8 19-13 30-13v-4C256 7 219-21 183-85h137c11 0 10-7 2-11-9-4-16-12-21-18l-18 20H181c4-19 7-44 8-77h102c7 0 8-9 1-11-9-4-15-10-21-18l-18 19h-64c1-25-4-61 6-73l-29-8c4 3 6 30 6 81H99" id="aM"/><use transform="matrix(0.05,0,0,0.05,0,0)" xlink:href="#aM" id="N"/><path fill="#c92d39" d="M172-79c-7-18-28-29-52-40v-36h57c9 1 11-8 3-11-9-5-16-12-21-18l-16 19h-23v-58c14-4 39-7 54-14-2-8-12-9-18-18-34 22-81 31-122 38l2 5c22-1 44-3 66-7v54H18l5 10h69C68-79 62-75 18-4l1 2c39-41 61-71 83-130l2 186c5-3 14-4 16-10v-159c17 16 22 20 34 43 2 5 5 8 9 8 6 0 10-7 9-15zm143-114c0-9 21-14 5-21-4-3-10-6-15-12l-11 11c-36-2-82 7-103-10 10 80 1 178 4 265 2 7 14-2 17-4V6h86c-3 17 4 28 17 15v-214zM212-4v-202h86V-4h-86" id="aN"/><use transform="matrix(0.05,0,0,0.05,0,0)" xlink:href="#aN" id="O"/><path fill="#c92d39" d="M184-129c33 29 72 50 108 66 10-9 24-14 40-14l2-4c-52-13-98-32-137-58 19-16 39-35 59-56 26-7 0-18-9-34l-11 12H134c6-12 14-23 25-30-6-6-16-8-24-15-28 70-46 93-97 135l2 4c34-17 63-45 84-78 16 25 32 46 48 61-42 35-82 56-154 88l1 3c22-7 44-14 63-22 7 36 2 82 3 122 9 7 21-4 17-20h147c1 5-2 15 2 16 4-2 12-3 14-7v-82c1-6 21-12 5-19-4-3-9-7-14-13l-13 11H100l-17-9c42-17 71-32 101-57zM102 21v-74h147v74H102zm24-224c1-1 1-3 2-4h108c-18 23-36 42-53 58-22-16-41-34-57-54" id="aO"/><use transform="matrix(0.05,0,0,0.05,0,0)" xlink:href="#aO" id="P"/><path fill="#c92d39" d="M284-155c18-7 10-28-5-41-11-9-31-27-55-36 15 13 25 24 31 32-44 3-89 5-136 6 16-10 29-31 37-46 1-3 25-4 8-11-6-2-13-6-20-11-8 29-18 47-36 69l-53 1c5 6 10 32 16 19l87-9c-9 18-18 33-27 46H26l6 10h92C97-93 70-76 18-49l1 3c65-27 93-38 127-80h59c8 28 63 70 86 78 13-8 26-13 40-14v-3c-59-12-83-24-120-61h109c9-1 7-10-1-13-6-4-13-10-21-19l-19 22H154c10-9 16-29 31-36 2-1 3-3 3-5-1-4-11-5-15-8 30-4 58-7 85-11 8 7 12 35 26 41zM65-33c53-7 90-23 130-52 11 0 13-3 5-7-4-2-8-6-13-12-34 34-80 55-124 67zM53 13c78-7 136-31 201-62-3-6-12-9-18-16C185-26 115-4 52 9zM41 54c101-2 203-23 269-60-3-8-15-11-20-20-61 51-151 66-252 77" id="aP"/><use transform="matrix(0.05,0,0,0.05,0,0)" xlink:href="#aP" id="Q"/><path fill="#c92d39" d="M118-98c22-18-9-39-29-48v-25c16-3 45 7 51-6-5-6-17-11-20-18-7 8-13 17-31 14 2-23-5-56 6-69-4-6-20-4-25-8 4 15 3 54 3 77H23c2 14 23 9 39 10-16 66-18 70-47 134l2 2c27-37 41-64 56-116l1 206c5-3 14-2 15-8v-187c14 9 14 33 29 42zm66-110c5 13 21 8 18-7-3-16-23-28-41-36 13 17 16 21 23 43zm60 13c17-10 35-31 51-49-4-4-15-5-22-11-7 25-20 44-37 60h-90l5 10h66v48c-27 0-55 2-69-10 0 17-9 76-15 91 9 5 22-4 21-16h50c-29 57-45 73-98 104l1 3c58-30 78-44 110-98V54c2 6 14-1 16-5V-72h70c-4 31 2 79-45 68 13 6 20 13 25 24 33-19 27-21 36-80 1-5 22-7 9-16-5-4-11-9-15-16-13 17-52 8-80 10v-45h57c-3 11 6 9 14 6 8-18-7-58 12-67-3-8-14-12-18-19l-14 12h-40zm-11 10h57v48h-57v-48zM217-82h-61c3-15 6-30 8-45h53v45" id="aQ"/><use transform="matrix(0.05,0,0,0.05,0,0)" xlink:href="#aQ" id="R"/><path fill="#c92d39" d="M200-218c-6-18 14-30 2-36-8 0-15-2-23-5 7 9 3 26 4 41H78l-23-14c4 11 5 34 5 69C59-44 55-19 19 50l3 1c44-63 55-87 56-202h59c2 22-4 51 2 69 8-3 18-4 15-18h74c-3 14 7 8 14 5 6-14 0-38 2-56h75c7 1 6-7 2-10-8-3-15-9-20-16l-17 17h-40c-5-14 13-24 1-27-8-2-14-3-18-5l1 32h-74c-4-14 12-24 0-29-8-1-14-2-18-4l1 33H78v-48h242c7 0 9-8 2-11-8-4-15-9-21-17l-18 18h-83zm-46 109v-42h74v42h-74zM219 0c18-10 41-43 67-57-4-10-14-13-20-25l-16 15H92l5 10h33c18 23 36 45 61 59-44 23-71 30-135 44l3 3c60-10 102-16 143-39 20 14 81 34 106 36 7-9 15-15 26-18v-3c-39-2-78-10-115-25zm-83-57h117c-20 25-31 38-49 51-24-11-46-29-68-51" id="aR"/><path fill="#c92d39" d="M166-31c30 0 29 45 15 64-7 9-15 16-28 21l-5-6c20-10 31-23 27-42-14 5-31 0-31-17 0-12 10-20 22-20" id="aS"/><g id="S"><use transform="matrix(0.05,0,0,0.05,0,0)" xlink:href="#aR"/><use transform="matrix(0.05,0,0,0.05,18,0)" xlink:href="#aS"/></g><path fill="#c92d39" d="M284-166c-1-8 19-13 4-20-5-2-10-7-15-13l-11 11h-79v-38h145c8-1 8-11-1-13-7-4-14-11-22-20l-21 23H18l5 10h143v38c-35-2-81 7-103-9 9 41 2 96 4 143 8 6 22-5 17-20h78c-3 24-7 40-16 57-15-10-29-22-44-37l-3 2c13 17 27 32 41 44-29 38-55 43-122 59l1 3c66-9 102-19 131-54 41 28 90 41 151 50 9-9 20-15 33-19v-5c-67 0-135-10-176-36 11-18 17-37 21-64h89c1 4-3 13 3 12 4-2 12-2 13-6v-98zM84-83v-46h82c0 16-1 32-3 46H84zm98-46h86v46h-88c2-14 2-29 2-46zm-98-9v-40h82v40H84zm99-40h85v40h-85v-40" id="aT"/><use transform="matrix(0.05,0,0,0.05,0,0)" xlink:href="#aT" id="T"/><path fill="#c92d39" d="M110-218c-2-18 3-27 7-36l-26-8c4 10 3 29 3 44H25l5 10h146c9 0 10-10 1-11-8-5-14-11-19-17l-17 18h-31zm-37 71c19-17 0-35-18-53-2 11 12 31 12 49 2 3 4 4 6 4zM168-2c-9-27-21-28-58-55v-17h63c9 1 10-8 2-10-8-5-15-10-19-16l-15 17h-31v-46h70c8 1 9-8 2-10-8-4-13-9-17-14l-15 15h-40c13-13 23-27 30-43 3-1 19-4 6-11-6-2-12-6-18-12-7 34-11 40-25 66H18l5 9h71v46H25l5 9h53C62-21 57-19 18 29l1 2C53 2 73-17 94-60c2 37-4 81 2 114 5-2 14-2 14-8v-97c25 21 33 45 49 61 6 0 9-4 9-12zm-24 49c55-47 64-84 63-192h58V51c2 6 16 0 17-5v-191h46c7 0 9-8 2-11-9-4-16-10-22-18l-18 19h-83v-71c42 0 80-7 110-11-5-8-16-11-23-21-19 14-47 21-83 26l-24-13c3 20 4 62 4 126 0 98-9 115-50 165" id="aU"/><use transform="matrix(0.05,0,0,0.05,0,0)" xlink:href="#aU" id="U"/><path fill="#c92d39" d="M146-111c-6-17-26-25-47-36v-28h54c7 0 9-10 1-11-8-5-14-9-18-15l-15 16H99c1-22-4-51 5-65-4-6-19-4-24-8 3 14 1 52 2 73H22l5 10h53C61-102 52-95 19-27c29-33 47-61 63-106l2 188c5-3 13-2 15-8v-189c14 14 18 18 27 39 2 5 6 9 10 9 8 0 9-9 10-17zm83 92c20 28 43 50 73 63 9-13 23-10 33-13-44-16-72-35-95-65 38-48 52-85 72-170 4-3 20-7 7-13-4-4-9-9-13-17l-14 9H137c2 13 19 10 34 10 6 74 18 133 50 184-25 30-53 50-109 81l2 3c50-19 84-40 115-72zm-55-196h120c-12 81-28 119-62 169-33-47-42-87-58-169" id="aV"/><use transform="matrix(0.05,0,0,0.05,0,0)" xlink:href="#aV" id="V"/><path fill="#c92d39" d="M273-131c1-7 24-13 6-19-4-3-9-7-14-13l-12 11h-70v-29h138c9 1 9-9 2-11-8-5-15-10-20-16l-16 17H183v-34c30 0 59-17 86-11 7 0 7-4 2-8-7-4-12-10-17-18-53 23-119 35-198 38l3 6c37 0 73-2 107-6v33H29l5 10h132v29c-34-2-77 6-96-10 9 36 2 85 4 127 8 5 22-4 17-19h75v36H59l6 10h101v37H18l5 10h298c10 1 12-9 3-11-9-5-16-11-21-18l-16 19H183V-8h108c9 1 10-8 2-10-8-5-14-10-18-16l-16 16h-76v-36h74c1 4-2 13 2 13 4-2 12-3 14-7v-83zM91-64v-37h75v37H91zm92-37h74v37h-74v-37zm-92-10v-31h75v31H91zm92-31h74v31h-74v-31" id="aW"/><use transform="matrix(0.05,0,0,0.05,0,0)" xlink:href="#aW" id="W"/></defs></g></svg>